<svg width="512" height="512" viewBox="0 0 512 512" fill="none" xmlns="http://www.w3.org/2000/svg">
  <rect width="512" height="512" rx="120" fill="#FAFAFB"/>
  <path d="M128 118L202 172L191 233L121 187L128 118Z" fill="#E7B65A"/>
  <path d="M384 118L391 187L321 233L310 172L384 118Z" fill="#E7B65A"/>
  <path d="M256 150C185.307 150 128 204.621 128 272C128 309.153 145.899 343.122 174 365.6V414L214 461H298L338 414V365.6C366.101 343.122 384 309.153 384 272C384 204.621 326.693 150 256 150Z" fill="#E7B65A"/>
  <path d="M200 233C210.493 233 219 224.493 219 214C219 203.507 210.493 195 200 195C189.507 195 181 203.507 181 214C181 224.493 189.507 233 200 233Z" fill="#B78934"/>
  <path d="M312 233C322.493 233 331 224.493 331 214C331 203.507 322.493 195 312 195C301.507 195 293 203.507 293 214C293 224.493 301.507 233 312 233Z" fill="#1F2533"/>
  <path d="M256 218C219.414 218 185.542 229.816 160 249.79C170.743 286.822 210.052 314 256 314C301.948 314 341.257 286.822 352 249.79C326.458 229.816 292.586 218 256 218Z" fill="#F6DCA8"/>
  <path d="M236 274H276V306C276 317.046 267.046 326 256 326C244.954 326 236 317.046 236 306V274Z" fill="#2A2F3A"/>
  <path d="M166 308L221 366L209 454L149 376L166 308Z" fill="#E1E2E8"/>
  <path d="M346 308L363 376L303 454L291 366L346 308Z" fill="#D5D6DC"/>
  <path d="M256 332L318 392L286 468H226L194 392L256 332Z" fill="#C1C5CD"/>
</svg>
